<?xml version="1.0" standalone="no"?>
<!DOCTYPE svg PUBLIC "-//W3C//DTD SVG 20010904//EN"
 "http://www.w3.org/TR/2001/REC-SVG-20010904/DTD/svg10.dtd">
<svg version="1.0" xmlns="http://www.w3.org/2000/svg"
 width="414.000000pt" height="414.000000pt" viewBox="0 0 414.000000 414.000000"
 preserveAspectRatio="xMidYMid meet">
<metadata>
Created by potrace 1.14, written by Peter Selinger 2001-2017
</metadata>
<g transform="translate(0.000000,414.000000) scale(0.100000,-0.100000)"
fill="#000000" stroke="none">
<path d="M2486 3752 c-3 -3 -16 -5 -81 -18 -40 -8 -43 -9 -95 -24 -25 -7 -48
-13 -52 -12 -5 1 -8 -2 -8 -8 0 -5 -11 -10 -25 -10 -14 0 -25 -4 -25 -10 0 -5
-3 -9 -7 -8 -5 1 -18 -3 -30 -10 -13 -7 -23 -9 -23 -5 0 4 -4 3 -8 -2 -7 -12
-98 -66 -107 -65 -3 0 -17 -11 -31 -25 -14 -14 -28 -25 -32 -25 -4 0 -25 -18
-47 -40 -22 -21 -46 -39 -54 -40 -8 0 -11 -6 -7 -16 3 -8 2 -13 -3 -10 -5 3
-16 -4 -24 -17 -8 -12 -25 -34 -38 -48 -39 -43 -59 -69 -59 -76 0 -13 -91
-128 -140 -178 -13 -14 -21 -25 -16 -25 5 0 -4 -11 -20 -25 -16 -14 -26 -25
-21 -25 4 0 -12 -18 -34 -40 -23 -22 -38 -40 -33 -40 4 0 -1 -8 -12 -19 -39
-38 -109 -125 -107 -133 2 -4 -4 -8 -12 -8 -8 0 -15 -6 -15 -13 0 -7 -11 -21
-25 -31 -14 -10 -25 -23 -25 -29 0 -5 -13 -23 -30 -39 -16 -15 -30 -32 -30
-38 0 -5 -10 -16 -22 -24 -12 -9 -19 -16 -14 -16 4 0 -12 -19 -35 -43 -24 -23
-43 -44 -42 -47 1 -3 -16 -25 -38 -50 -56 -64 -59 -68 -59 -80 0 -6 -4 -8 -10
-5 -5 3 -10 2 -10 -3 0 -5 -8 -18 -18 -29 -9 -12 -30 -38 -47 -58 -16 -21 -45
-53 -63 -72 -17 -19 -29 -40 -25 -45 3 -7 1 -8 -6 -4 -6 4 -14 0 -18 -11 -8
-22 -29 -44 -35 -37 -3 2 -11 -9 -18 -26 -7 -16 -16 -27 -21 -24 -5 3 -9 0 -9
-7 0 -7 -7 -19 -15 -28 -62 -67 -105 -119 -110 -133 -4 -10 -13 -18 -21 -18
-8 0 -13 -4 -10 -8 3 -5 -8 -22 -24 -37 -17 -16 -30 -32 -30 -37 0 -4 -18 -26
-40 -48 -22 -22 -37 -40 -33 -40 4 0 -7 -13 -25 -30 -18 -16 -31 -30 -27 -30
3 0 -8 -15 -24 -32 -69 -77 -89 -103 -85 -109 2 -4 -5 -10 -16 -14 -11 -4 -18
-11 -15 -16 4 -5 2 -9 -4 -9 -5 0 -18 -13 -27 -29 -10 -17 -21 -28 -26 -25 -4
3 -8 -2 -8 -10 0 -8 -6 -19 -13 -23 -8 -4 -17 -16 -20 -26 -4 -10 -11 -16 -16
-12 -5 3 -13 -4 -16 -16 -4 -11 -20 -33 -36 -48 -16 -16 -29 -33 -29 -40 0 -6
-4 -11 -10 -11 -5 0 -10 -6 -10 -14 0 -8 -4 -16 -10 -18 -9 -3 -14 -41 -11
-83 1 -23 48 -81 62 -78 5 2 9 -2 9 -8 0 -5 4 -7 10 -4 5 3 10 1 10 -5 0 -20
116 7 130 30 9 15 74 93 96 116 12 13 20 25 17 28 -3 2 5 9 16 16 12 6 21 15
21 20 0 9 17 30 78 94 17 19 32 39 32 45 0 6 4 11 9 11 5 0 18 15 30 33 17 26
21 29 22 12 1 -21 4 -36 8 -45 8 -16 6 -50 -2 -50 -5 0 -4 -7 3 -15 7 -8 10
-15 8 -15 -3 0 2 -30 9 -67 8 -38 16 -79 17 -91 1 -13 9 -28 17 -33 8 -5 10
-9 5 -9 -5 0 -2 -8 5 -17 10 -12 10 -15 1 -9 -7 4 -3 -9 8 -28 11 -20 17 -36
15 -36 -3 0 5 -17 18 -38 13 -20 27 -47 31 -59 4 -13 12 -23 17 -23 6 0 7 -4
4 -10 -3 -5 -2 -10 3 -10 5 0 15 -13 22 -29 6 -16 18 -32 26 -35 8 -3 14 -10
14 -16 0 -6 25 -36 55 -66 30 -31 55 -59 55 -63 0 -4 11 -14 25 -21 13 -7 22
-18 18 -23 -3 -6 -2 -7 3 -4 5 3 27 -10 49 -29 22 -19 45 -34 52 -34 7 0 13
-4 13 -10 0 -5 6 -10 14 -10 8 0 16 -3 18 -7 7 -17 167 -90 172 -79 3 7 5 7 5
-1 1 -7 10 -13 21 -13 11 0 20 -5 20 -12 0 -6 2 -9 6 -6 3 3 25 0 49 -7 24 -8
46 -11 49 -8 3 4 6 2 6 -4 0 -5 10 -9 23 -8 12 1 30 -2 41 -7 14 -8 17 -7 10
4 -6 10 -5 11 7 2 16 -13 289 -17 289 -4 0 4 10 6 23 5 25 -3 136 22 152 35 6
4 18 6 28 5 9 -2 17 2 17 8 0 5 3 8 6 4 4 -3 24 3 45 14 22 11 39 16 39 12 0
-5 4 -3 8 3 4 6 30 22 59 36 29 14 49 28 46 32 -4 3 0 6 9 6 8 0 28 11 43 24
16 14 33 22 38 19 6 -3 7 -1 3 5 -4 7 -1 12 9 12 8 0 18 7 21 15 4 8 10 13 14
10 5 -3 11 4 15 15 3 11 14 20 22 20 9 0 14 2 11 5 -3 3 14 25 37 48 23 23 57
63 75 90 18 26 37 47 42 47 5 0 7 4 4 8 -3 5 4 14 14 22 10 8 17 17 14 22 -3
4 0 8 6 8 5 0 19 15 30 33 11 17 20 28 20 24 0 -4 6 -2 14 5 8 7 12 16 11 19
-2 3 20 31 49 62 29 31 50 57 48 57 -2 0 12 18 32 40 20 22 36 45 36 51 0 5 5
7 10 4 6 -3 10 -2 10 4 0 9 66 91 161 199 16 19 26 39 22 45 -3 7 -3 9 2 5 8
-8 55 40 55 55 0 5 6 5 13 1 6 -4 9 -4 5 1 -4 4 11 28 32 53 22 25 40 49 40
54 0 5 5 6 10 3 6 -3 10 0 10 7 0 8 8 21 18 30 27 26 42 46 42 58 0 5 7 10 15
10 8 0 15 7 15 15 0 7 6 18 13 22 7 4 28 28 47 53 19 25 44 55 55 66 11 12 34
39 50 60 17 21 43 51 58 66 15 16 25 32 22 37 -3 5 4 12 14 16 11 3 22 14 25
23 4 9 24 35 46 57 21 22 39 46 40 53 0 6 7 12 15 12 8 0 15 7 15 15 0 9 7 18
15 21 8 4 15 11 15 16 0 6 10 19 22 29 11 11 18 19 15 19 -4 0 7 14 23 30 17
17 30 35 30 41 0 6 5 7 10 4 6 -3 10 1 10 9 0 8 9 20 20 26 11 6 20 16 20 23
0 7 8 20 18 28 9 9 29 32 45 50 15 19 38 48 52 64 14 17 25 34 25 38 0 5 4 6
8 3 4 -2 14 9 21 25 7 16 20 29 29 29 8 0 13 3 10 6 -4 3 1 14 10 23 30 32 52
61 46 61 -4 0 -1 6 5 14 17 20 10 93 -10 115 -10 10 -15 22 -12 25 4 3 -1 6
-10 6 -9 0 -17 5 -17 11 0 6 -7 8 -16 5 -8 -3 -13 -2 -10 2 6 11 -72 15 -88 5
-6 -4 -13 -8 -16 -9 -18 -3 -40 -18 -40 -26 0 -5 -16 -25 -35 -45 -19 -20 -33
-39 -30 -43 2 -4 -7 -13 -20 -20 -14 -7 -27 -20 -30 -29 -3 -9 -22 -35 -43
-58 -31 -35 -39 -39 -50 -27 -7 8 -8 14 -2 14 12 0 13 37 1 45 -6 3 -6 17 -1
35 5 19 5 32 -2 36 -5 3 -8 15 -5 25 3 11 2 17 -2 14 -4 -2 -8 11 -9 29 -1 18
-6 44 -11 58 -5 14 -7 29 -4 32 4 3 1 6 -5 6 -7 0 -12 10 -12 23 0 13 -3 27
-7 31 -4 3 -8 13 -9 20 -3 23 -88 186 -106 206 -10 11 -18 23 -18 28 0 5 -13
22 -30 38 -16 16 -30 33 -30 37 0 4 -18 25 -39 46 -22 22 -37 42 -33 47 4 4 2
4 -5 0 -7 -4 -19 4 -29 19 -9 14 -22 25 -29 25 -7 0 -15 6 -18 13 -2 7 -23 21
-45 32 -22 11 -38 23 -36 27 3 5 0 8 -6 8 -6 0 -28 11 -50 25 -22 14 -40 22
-40 18 0 -5 -4 -3 -8 2 -9 13 -68 46 -79 44 -20 -3 -34 2 -28 10 3 6 -4 8 -15
6 -11 -2 -20 0 -20 6 0 5 -13 9 -30 9 -16 0 -30 5 -30 11 0 6 -9 8 -20 4 -11
-3 -20 -3 -20 2 0 5 -8 9 -17 10 -48 4 -79 9 -91 16 -7 5 -12 3 -12 -5 0 -8
-3 -9 -8 -2 -6 9 -248 15 -256 6z m306 -284 c14 -2 24 -6 22 -9 -3 -6 26 -13
84 -21 6 -1 12 -5 12 -10 0 -4 9 -8 20 -8 11 0 20 -5 20 -11 0 -5 4 -8 9 -4 5
3 12 1 16 -5 3 -5 15 -10 26 -10 13 0 18 -4 13 -12 -5 -8 -2 -9 9 -5 11 4 17
1 17 -8 0 -8 6 -12 14 -9 7 3 16 -2 19 -10 4 -9 11 -16 17 -16 5 0 24 -13 42
-30 17 -16 37 -30 44 -30 8 0 13 -4 12 -9 -2 -5 10 -20 25 -35 15 -14 25 -26
21 -26 -4 0 2 -8 12 -17 11 -10 33 -38 49 -63 16 -25 34 -48 40 -52 5 -4 7 -8
2 -8 -4 0 4 -22 18 -49 26 -53 65 -182 65 -218 0 -13 6 -23 13 -23 8 0 8 -3 2
-8 -11 -7 -12 -78 -1 -89 3 -3 1 -12 -5 -20 -9 -10 -8 -17 1 -28 7 -8 8 -15 3
-15 -9 0 -12 -21 -16 -97 -1 -13 -5 -23 -10 -23 -5 0 -7 -7 -3 -15 3 -8 2 -15
-3 -15 -4 0 -8 -6 -9 -12 -3 -37 -33 -118 -44 -118 -4 0 -7 -3 -6 -7 1 -9 -13
-46 -21 -53 -3 -3 -13 -18 -22 -33 -36 -66 -163 -197 -189 -197 -6 0 -8 -4 -5
-10 3 -5 -1 -10 -9 -10 -9 0 -16 -5 -16 -11 0 -5 -4 -8 -9 -4 -6 3 -15 -3 -21
-14 -6 -12 -16 -18 -25 -15 -8 4 -15 2 -15 -4 0 -6 -14 -13 -30 -17 -17 -4
-28 -10 -25 -15 3 -5 -3 -7 -12 -6 -10 2 -21 -1 -24 -6 -3 -5 -15 -11 -25 -13
-10 -2 -19 -4 -19 -5 0 -2 -36 -10 -78 -17 -21 -3 -40 -10 -43 -14 -3 -5 -14
-5 -24 1 -11 6 -21 6 -24 1 -3 -5 -22 -9 -42 -9 -29 0 -37 5 -46 26 -6 15 -11
30 -10 35 1 4 -2 7 -7 7 -5 0 -12 11 -15 25 -4 14 -11 25 -17 25 -6 0 -8 4 -5
9 3 4 -3 16 -14 26 -11 10 -20 24 -20 32 0 7 -4 13 -10 13 -5 0 -10 5 -10 11
0 6 -6 17 -12 24 -7 7 -40 43 -72 79 -33 36 -66 66 -73 66 -8 0 -12 4 -9 8 3
5 -4 15 -16 23 -11 8 -27 21 -36 29 -17 16 -45 34 -79 49 -13 6 -23 15 -23 21
0 5 -9 10 -20 10 -11 0 -20 4 -20 9 0 5 -22 17 -50 26 -27 9 -50 21 -50 25 0
5 -7 7 -15 4 -8 -4 -15 -2 -15 4 0 9 -37 20 -82 25 -9 1 -15 5 -12 9 2 4 -4 7
-13 6 -48 0 -87 18 -79 38 3 8 2 14 -2 14 -4 0 -7 18 -6 40 0 23 -3 43 -8 46
-5 3 -3 13 4 22 11 13 11 14 0 8 -12 -7 -12 -4 -2 14 9 18 9 24 0 30 -8 5 -9
10 -2 14 6 4 9 22 8 41 -2 19 -1 35 3 35 3 0 7 17 9 37 1 20 8 41 15 45 9 6 8
8 -3 8 -12 0 -12 2 -2 9 8 4 13 10 12 12 -4 10 13 59 21 59 5 0 8 3 8 8 -3 17
14 71 21 67 5 -3 11 8 15 25 4 16 10 30 14 30 4 0 15 15 26 33 29 49 98 123
165 177 17 14 37 30 44 37 8 7 16 9 20 6 3 -4 13 2 21 13 8 10 15 15 15 11 0
-5 7 -1 16 7 8 9 24 16 35 16 12 0 17 4 14 11 -4 6 -1 10 6 8 28 -3 40 1 33
13 -4 7 -3 8 5 4 6 -4 18 -2 26 4 8 7 15 10 15 7 0 -3 15 -1 33 4 17 5 50 12
72 15 22 4 42 8 45 11 4 4 190 -2 262 -9z m-1244 -899 c-3 -38 -6 -44 -25 -43
-13 1 -23 -4 -23 -10 0 -6 -5 -4 -11 4 -7 11 -12 12 -15 3 -3 -7 -11 -10 -19
-7 -9 4 1 20 31 51 24 24 44 50 44 56 0 8 3 8 11 0 5 -5 9 -30 7 -54z m92
-344 c0 -8 4 -15 9 -15 5 0 12 -13 16 -30 4 -16 11 -30 16 -30 5 0 9 -5 9 -11
0 -12 59 -101 74 -111 6 -4 7 -8 2 -8 -5 0 3 -10 17 -23 15 -12 27 -26 27 -29
0 -14 156 -158 171 -158 5 0 9 -4 9 -10 0 -5 7 -10 15 -10 9 0 18 -7 21 -15 4
-8 10 -12 15 -9 5 3 9 0 9 -5 0 -6 7 -11 15 -11 8 0 15 -4 15 -9 0 -5 14 -11
31 -15 18 -3 28 -10 24 -17 -4 -6 -1 -9 6 -8 8 2 28 -5 46 -14 18 -9 39 -17
48 -17 8 0 15 -4 15 -8 0 -5 6 -9 13 -10 31 -2 61 -13 69 -24 6 -10 8 -9 8 2
0 10 3 11 8 4 4 -6 17 -10 30 -9 29 2 30 1 38 -76 10 -83 9 -130 0 -209 -5
-36 -8 -71 -9 -77 0 -7 -4 -13 -8 -13 -4 0 -8 -8 -7 -17 0 -29 -37 -114 -47
-106 -4 5 -5 3 -2 -3 7 -12 -7 -43 -44 -99 -10 -16 -22 -38 -25 -47 -4 -10
-13 -18 -20 -18 -13 0 -18 -12 -15 -32 0 -5 -4 -8 -10 -8 -13 0 -49 -38 -49
-52 0 -4 -7 -8 -15 -8 -8 0 -15 -5 -15 -12 0 -6 -3 -9 -6 -6 -3 3 -16 -4 -29
-16 -35 -32 -53 -46 -61 -46 -3 0 -17 -9 -31 -20 -14 -11 -34 -20 -44 -20 -11
0 -19 -4 -19 -10 0 -5 -9 -10 -20 -10 -11 0 -20 -5 -20 -11 0 -5 -4 -8 -9 -5
-7 5 -30 -1 -91 -22 -25 -9 -60 -13 -169 -18 -80 -4 -106 -2 -112 8 -7 10 -9
10 -9 1 0 -7 -5 -13 -11 -13 -5 0 -8 4 -5 8 3 5 -8 8 -25 7 -16 -1 -32 2 -35
7 -3 4 -18 8 -35 8 -16 0 -29 5 -29 11 0 5 -4 8 -8 5 -5 -3 -21 2 -36 10 -16
7 -34 14 -41 14 -7 0 -18 7 -25 15 -7 9 -15 13 -18 10 -3 -3 -20 7 -39 21 -18
14 -33 22 -33 18 0 -4 -8 3 -19 14 -10 12 -21 22 -25 22 -8 0 -114 107 -148
150 -15 19 -28 41 -28 48 0 6 -4 12 -10 12 -5 0 -10 6 -10 14 0 7 -7 19 -15
26 -8 7 -13 16 -10 20 3 5 1 11 -5 15 -5 3 -10 17 -10 31 0 14 -4 22 -10 19
-9 -5 -15 23 -11 48 0 4 -3 7 -8 7 -6 0 -10 8 -10 18 0 9 -5 42 -11 72 -14 76
-18 170 -8 198 4 13 4 21 -1 18 -8 -6 -3 27 20 119 15 58 51 149 63 157 6 4 7
8 3 8 -10 0 59 110 82 130 9 8 19 20 22 25 2 6 8 9 13 7 5 -2 5 5 2 15 -4 9
-4 14 0 11 3 -4 23 10 45 30 53 51 69 64 69 56 0 -4 8 2 18 13 9 11 27 23 40
27 12 4 22 12 22 18 0 5 7 7 16 4 8 -3 12 -2 9 4 -3 6 3 10 14 10 12 0 21 5
21 10 0 6 6 10 13 8 6 -1 22 3 35 10 12 7 22 10 22 6 0 -3 6 -2 13 4 7 6 26
13 42 16 17 2 30 5 30 6 0 1 16 4 35 7 19 2 36 5 37 6 1 1 24 3 52 5 40 1 51
-2 51 -13z m451 -130 c5 4 9 2 9 -3 0 -5 18 -22 40 -37 22 -15 40 -34 40 -42
0 -8 -5 -11 -10 -8 -6 4 -8 11 -5 16 4 5 -1 9 -10 9 -9 0 -30 13 -48 30 -18
16 -35 30 -39 30 -5 0 -8 8 -8 18 1 16 1 16 11 -1 6 -9 14 -15 20 -12z m675
-496 c-5 7 4 11 24 11 28 0 30 -2 20 -20 -6 -11 -15 -20 -21 -20 -6 0 -8 -4
-5 -9 3 -5 -1 -11 -9 -15 -8 -3 -15 -13 -15 -21 0 -9 -4 -14 -9 -11 -5 3 -11
-1 -15 -9 -11 -29 -24 -15 -24 26 -1 23 -3 44 -6 47 -3 3 2 11 12 18 12 9 22
9 36 2 13 -7 16 -7 12 1z"/>
</g>
</svg>
